<?xml version="1.0" encoding="UTF-8" standalone="no"?>
<!DOCTYPE svg PUBLIC "-//W3C//DTD SVG 1.1//EN"
 "http://www.w3.org/Graphics/SVG/1.1/DTD/svg11.dtd">
<!-- Generated by graphviz version 2.26.0 (20091210.2329)
 -->
<!-- Title: snakemake_dag Pages: 1 -->
<svg width="838pt" height="344pt"
 viewBox="0.00 0.00 837.56 344.00" xmlns="http://www.w3.org/2000/svg" xmlns:xlink="http://www.w3.org/1999/xlink">
<g id="graph1" class="graph" transform="scale(1 1) rotate(0) translate(4 340)">
<title>snakemake_dag</title>
<polygon fill="white" stroke="white" points="-4,5 -4,-340 834.56,-340 834.56,5 -4,5"/>
<!-- 0 -->
<g id="node1" class="node"><title>0</title>
<polyline fill="none" stroke="#d88d56" stroke-width="2" stroke-dasharray="5,2" points="382.177,-252 294.177,-252 "/>
<path fill="none" stroke="#d88d56" stroke-width="2" stroke-dasharray="5,2" d="M294.177,-252C288.177,-252 282.177,-246 282.177,-240"/>
<polyline fill="none" stroke="#d88d56" stroke-width="2" stroke-dasharray="5,2" points="282.177,-240 282.177,-228 "/>
<path fill="none" stroke="#d88d56" stroke-width="2" stroke-dasharray="5,2" d="M282.177,-228C282.177,-222 288.177,-216 294.177,-216"/>
<polyline fill="none" stroke="#d88d56" stroke-width="2" stroke-dasharray="5,2" points="294.177,-216 382.177,-216 "/>
<path fill="none" stroke="#d88d56" stroke-width="2" stroke-dasharray="5,2" d="M382.177,-216C388.177,-216 394.177,-222 394.177,-228"/>
<polyline fill="none" stroke="#d88d56" stroke-width="2" stroke-dasharray="5,2" points="394.177,-228 394.177,-240 "/>
<path fill="none" stroke="#d88d56" stroke-width="2" stroke-dasharray="5,2" d="M394.177,-240C394.177,-246 388.177,-252 382.177,-252"/>
<text text-anchor="middle" x="338.177" y="-238" font-family="sans" font-size="10.00">raw_fastqc_sample</text>
<text text-anchor="middle" x="338.177" y="-225" font-family="sans" font-size="10.00">end: R1</text>
</g>
<!-- 2 -->
<g id="node3" class="node"><title>2</title>
<polyline fill="none" stroke="#d8bc56" stroke-width="2" stroke-dasharray="5,2" points="395.177,-36 365.177,-36 "/>
<path fill="none" stroke="#d8bc56" stroke-width="2" stroke-dasharray="5,2" d="M365.177,-36C359.177,-36 353.177,-30 353.177,-24"/>
<polyline fill="none" stroke="#d8bc56" stroke-width="2" stroke-dasharray="5,2" points="353.177,-24 353.177,-12 "/>
<path fill="none" stroke="#d8bc56" stroke-width="2" stroke-dasharray="5,2" d="M353.177,-12C353.177,-6 359.177,-1.61846e-14 365.177,-1.46056e-14"/>
<polyline fill="none" stroke="#d8bc56" stroke-width="2" stroke-dasharray="5,2" points="365.177,-1.46056e-14 395.177,-6.71068e-15 "/>
<path fill="none" stroke="#d8bc56" stroke-width="2" stroke-dasharray="5,2" d="M395.177,-6.71068e-15C401.177,-5.1317e-15 407.177,-6 407.177,-12"/>
<polyline fill="none" stroke="#d8bc56" stroke-width="2" stroke-dasharray="5,2" points="407.177,-12 407.177,-24 "/>
<path fill="none" stroke="#d8bc56" stroke-width="2" stroke-dasharray="5,2" d="M407.177,-24C407.177,-30 401.177,-36 395.177,-36"/>
<text text-anchor="middle" x="380.177" y="-15.5" font-family="sans" font-size="10.00">all</text>
</g>
<!-- 0&#45;&gt;2 -->
<g id="edge6" class="edge"><title>0&#45;&gt;2</title>
<path fill="none" stroke="grey" stroke-width="2" d="M282.044,-228.359C195.535,-219.093 37.8086,-199.705 21.1769,-180 10.8567,-167.773 13.3456,-157.952 21.1769,-144 51.2473,-90.4258 82.2181,-95.0243 139.177,-72 208.248,-44.0797 294.577,-29.184 342.92,-22.4944"/>
<polygon fill="grey" stroke="grey" points="343.481,-25.9507 352.927,-21.1525 342.55,-19.0128 343.481,-25.9507"/>
</g>
<!-- 6 -->
<g id="node7" class="node"><title>6</title>
<polyline fill="none" stroke="#56c1d8" stroke-width="2" stroke-dasharray="5,2" points="360.177,-108 306.177,-108 "/>
<path fill="none" stroke="#56c1d8" stroke-width="2" stroke-dasharray="5,2" d="M306.177,-108C300.177,-108 294.177,-102 294.177,-96"/>
<polyline fill="none" stroke="#56c1d8" stroke-width="2" stroke-dasharray="5,2" points="294.177,-96 294.177,-84 "/>
<path fill="none" stroke="#56c1d8" stroke-width="2" stroke-dasharray="5,2" d="M294.177,-84C294.177,-78 300.177,-72 306.177,-72"/>
<polyline fill="none" stroke="#56c1d8" stroke-width="2" stroke-dasharray="5,2" points="306.177,-72 360.177,-72 "/>
<path fill="none" stroke="#56c1d8" stroke-width="2" stroke-dasharray="5,2" d="M360.177,-72C366.177,-72 372.177,-78 372.177,-84"/>
<polyline fill="none" stroke="#56c1d8" stroke-width="2" stroke-dasharray="5,2" points="372.177,-84 372.177,-96 "/>
<path fill="none" stroke="#56c1d8" stroke-width="2" stroke-dasharray="5,2" d="M372.177,-96C372.177,-102 366.177,-108 360.177,-108"/>
<text text-anchor="middle" x="333.177" y="-87.5" font-family="sans" font-size="10.00">multiQC_run</text>
</g>
<!-- 0&#45;&gt;6 -->
<g id="edge34" class="edge"><title>0&#45;&gt;6</title>
<path fill="none" stroke="grey" stroke-width="2" d="M337.544,-215.762C336.691,-191.201 335.165,-147.247 334.161,-118.354"/>
<polygon fill="grey" stroke="grey" points="337.65,-117.962 333.805,-108.09 330.654,-118.205 337.65,-117.962"/>
</g>
<!-- 10 -->
<g id="node11" class="node"><title>10</title>
<polyline fill="none" stroke="#56d88a" stroke-width="2" stroke-dasharray="5,2" points="452.177,-108 402.177,-108 "/>
<path fill="none" stroke="#56d88a" stroke-width="2" stroke-dasharray="5,2" d="M402.177,-108C396.177,-108 390.177,-102 390.177,-96"/>
<polyline fill="none" stroke="#56d88a" stroke-width="2" stroke-dasharray="5,2" points="390.177,-96 390.177,-84 "/>
<path fill="none" stroke="#56d88a" stroke-width="2" stroke-dasharray="5,2" d="M390.177,-84C390.177,-78 396.177,-72 402.177,-72"/>
<polyline fill="none" stroke="#56d88a" stroke-width="2" stroke-dasharray="5,2" points="402.177,-72 452.177,-72 "/>
<path fill="none" stroke="#56d88a" stroke-width="2" stroke-dasharray="5,2" d="M452.177,-72C458.177,-72 464.177,-78 464.177,-84"/>
<polyline fill="none" stroke="#56d88a" stroke-width="2" stroke-dasharray="5,2" points="464.177,-84 464.177,-96 "/>
<path fill="none" stroke="#56d88a" stroke-width="2" stroke-dasharray="5,2" d="M464.177,-96C464.177,-102 458.177,-108 452.177,-108"/>
<text text-anchor="middle" x="427.177" y="-87.5" font-family="sans" font-size="10.00">multiQC_all</text>
</g>
<!-- 0&#45;&gt;10 -->
<g id="edge54" class="edge"><title>0&#45;&gt;10</title>
<path fill="none" stroke="grey" stroke-width="2" d="M349.449,-215.762C364.896,-190.768 392.756,-145.692 410.588,-116.841"/>
<polygon fill="grey" stroke="grey" points="413.716,-118.436 415.996,-108.09 407.762,-114.756 413.716,-118.436"/>
</g>
<!-- 1 -->
<g id="node2" class="node"><title>1</title>
<polyline fill="none" stroke="#568ad8" stroke-width="2" stroke-dasharray="5,2" points="779.177,-252 699.177,-252 "/>
<path fill="none" stroke="#568ad8" stroke-width="2" stroke-dasharray="5,2" d="M699.177,-252C693.177,-252 687.177,-246 687.177,-240"/>
<polyline fill="none" stroke="#568ad8" stroke-width="2" stroke-dasharray="5,2" points="687.177,-240 687.177,-228 "/>
<path fill="none" stroke="#568ad8" stroke-width="2" stroke-dasharray="5,2" d="M687.177,-228C687.177,-222 693.177,-216 699.177,-216"/>
<polyline fill="none" stroke="#568ad8" stroke-width="2" stroke-dasharray="5,2" points="699.177,-216 779.177,-216 "/>
<path fill="none" stroke="#568ad8" stroke-width="2" stroke-dasharray="5,2" d="M779.177,-216C785.177,-216 791.177,-222 791.177,-228"/>
<polyline fill="none" stroke="#568ad8" stroke-width="2" stroke-dasharray="5,2" points="791.177,-228 791.177,-240 "/>
<path fill="none" stroke="#568ad8" stroke-width="2" stroke-dasharray="5,2" d="M791.177,-240C791.177,-246 785.177,-252 779.177,-252"/>
<text text-anchor="middle" x="739.177" y="-231.5" font-family="sans" font-size="10.00">qc_kneaddata_pe</text>
</g>
<!-- 1&#45;&gt;2 -->
<g id="edge8" class="edge"><title>1&#45;&gt;2</title>
<path fill="none" stroke="grey" stroke-width="2" d="M784.156,-215.986C799.351,-207.476 814.62,-195.673 823.177,-180 830.844,-165.957 832.29,-157.151 823.177,-144 776.047,-75.992 515.591,-35.5947 417.531,-22.6129"/>
<polygon fill="grey" stroke="grey" points="417.845,-19.1244 407.477,-21.3031 416.941,-26.0657 417.845,-19.1244"/>
</g>
<!-- 11 -->
<g id="node12" class="node"><title>11</title>
<polyline fill="none" stroke="#59d856" stroke-width="2" stroke-dasharray="5,2" points="802.177,-180 760.177,-180 "/>
<path fill="none" stroke="#59d856" stroke-width="2" stroke-dasharray="5,2" d="M760.177,-180C754.177,-180 748.177,-174 748.177,-168"/>
<polyline fill="none" stroke="#59d856" stroke-width="2" stroke-dasharray="5,2" points="748.177,-168 748.177,-156 "/>
<path fill="none" stroke="#59d856" stroke-width="2" stroke-dasharray="5,2" d="M748.177,-156C748.177,-150 754.177,-144 760.177,-144"/>
<polyline fill="none" stroke="#59d856" stroke-width="2" stroke-dasharray="5,2" points="760.177,-144 802.177,-144 "/>
<path fill="none" stroke="#59d856" stroke-width="2" stroke-dasharray="5,2" d="M802.177,-144C808.177,-144 814.177,-150 814.177,-156"/>
<polyline fill="none" stroke="#59d856" stroke-width="2" stroke-dasharray="5,2" points="814.177,-156 814.177,-168 "/>
<path fill="none" stroke="#59d856" stroke-width="2" stroke-dasharray="5,2" d="M814.177,-168C814.177,-174 808.177,-180 802.177,-180"/>
<text text-anchor="middle" x="781.177" y="-166" font-family="sans" font-size="10.00">qc_fastqc</text>
<text text-anchor="middle" x="781.177" y="-153" font-family="sans" font-size="10.00">end: R1</text>
</g>
<!-- 1&#45;&gt;11 -->
<g id="edge70" class="edge"><title>1&#45;&gt;11</title>
<path fill="none" stroke="grey" stroke-width="2" d="M749.775,-215.831C754.465,-207.792 760.08,-198.167 765.257,-189.292"/>
<polygon fill="grey" stroke="grey" points="768.42,-190.815 770.436,-180.413 762.374,-187.288 768.42,-190.815"/>
</g>
<!-- 12 -->
<g id="node13" class="node"><title>12</title>
<polyline fill="none" stroke="#59d856" stroke-width="2" stroke-dasharray="5,2" points="718.177,-180 676.177,-180 "/>
<path fill="none" stroke="#59d856" stroke-width="2" stroke-dasharray="5,2" d="M676.177,-180C670.177,-180 664.177,-174 664.177,-168"/>
<polyline fill="none" stroke="#59d856" stroke-width="2" stroke-dasharray="5,2" points="664.177,-168 664.177,-156 "/>
<path fill="none" stroke="#59d856" stroke-width="2" stroke-dasharray="5,2" d="M664.177,-156C664.177,-150 670.177,-144 676.177,-144"/>
<polyline fill="none" stroke="#59d856" stroke-width="2" stroke-dasharray="5,2" points="676.177,-144 718.177,-144 "/>
<path fill="none" stroke="#59d856" stroke-width="2" stroke-dasharray="5,2" d="M718.177,-144C724.177,-144 730.177,-150 730.177,-156"/>
<polyline fill="none" stroke="#59d856" stroke-width="2" stroke-dasharray="5,2" points="730.177,-156 730.177,-168 "/>
<path fill="none" stroke="#59d856" stroke-width="2" stroke-dasharray="5,2" d="M730.177,-168C730.177,-174 724.177,-180 718.177,-180"/>
<text text-anchor="middle" x="697.177" y="-166" font-family="sans" font-size="10.00">qc_fastqc</text>
<text text-anchor="middle" x="697.177" y="-153" font-family="sans" font-size="10.00">end: R2</text>
</g>
<!-- 1&#45;&gt;12 -->
<g id="edge72" class="edge"><title>1&#45;&gt;12</title>
<path fill="none" stroke="grey" stroke-width="2" d="M728.578,-215.831C723.889,-207.792 718.274,-198.167 713.097,-189.292"/>
<polygon fill="grey" stroke="grey" points="715.98,-187.288 707.918,-180.413 709.933,-190.815 715.98,-187.288"/>
</g>
<!-- 3 -->
<g id="node4" class="node"><title>3</title>
<polyline fill="none" stroke="#d88d56" stroke-width="2" stroke-dasharray="5,2" points="298.177,-180 210.177,-180 "/>
<path fill="none" stroke="#d88d56" stroke-width="2" stroke-dasharray="5,2" d="M210.177,-180C204.177,-180 198.177,-174 198.177,-168"/>
<polyline fill="none" stroke="#d88d56" stroke-width="2" stroke-dasharray="5,2" points="198.177,-168 198.177,-156 "/>
<path fill="none" stroke="#d88d56" stroke-width="2" stroke-dasharray="5,2" d="M198.177,-156C198.177,-150 204.177,-144 210.177,-144"/>
<polyline fill="none" stroke="#d88d56" stroke-width="2" stroke-dasharray="5,2" points="210.177,-144 298.177,-144 "/>
<path fill="none" stroke="#d88d56" stroke-width="2" stroke-dasharray="5,2" d="M298.177,-144C304.177,-144 310.177,-150 310.177,-156"/>
<polyline fill="none" stroke="#d88d56" stroke-width="2" stroke-dasharray="5,2" points="310.177,-156 310.177,-168 "/>
<path fill="none" stroke="#d88d56" stroke-width="2" stroke-dasharray="5,2" d="M310.177,-168C310.177,-174 304.177,-180 298.177,-180"/>
<text text-anchor="middle" x="254.177" y="-166" font-family="sans" font-size="10.00">raw_fastqc_sample</text>
<text text-anchor="middle" x="254.177" y="-153" font-family="sans" font-size="10.00">end: R2</text>
</g>
<!-- 3&#45;&gt;2 -->
<g id="edge10" class="edge"><title>3&#45;&gt;2</title>
<path fill="none" stroke="grey" stroke-width="2" d="M256.541,-143.922C259.917,-124.304 267.761,-92.9811 285.177,-72 300.484,-53.5593 323.818,-40.1688 343.529,-31.3348"/>
<polygon fill="grey" stroke="grey" points="345.032,-34.4987 352.863,-27.3619 342.291,-28.0578 345.032,-34.4987"/>
</g>
<!-- 3&#45;&gt;6 -->
<g id="edge40" class="edge"><title>3&#45;&gt;6</title>
<path fill="none" stroke="grey" stroke-width="2" d="M274.112,-143.831C283.655,-135.134 295.237,-124.578 305.607,-115.127"/>
<polygon fill="grey" stroke="grey" points="308.215,-117.486 313.248,-108.163 303.5,-112.312 308.215,-117.486"/>
</g>
<!-- 3&#45;&gt;10 -->
<g id="edge60" class="edge"><title>3&#45;&gt;10</title>
<path fill="none" stroke="grey" stroke-width="2" d="M297.832,-143.831C323.039,-133.34 354.741,-120.147 380.45,-109.447"/>
<polygon fill="grey" stroke="grey" points="382.097,-112.553 389.984,-105.479 379.407,-106.09 382.097,-112.553"/>
</g>
<!-- 4 -->
<g id="node5" class="node"><title>4</title>
<polyline fill="none" stroke="#88d856" stroke-width="2" stroke-dasharray="5,2" points="634.177,-335.5 546.177,-335.5 "/>
<path fill="none" stroke="#88d856" stroke-width="2" stroke-dasharray="5,2" d="M546.177,-335.5C540.177,-335.5 534.177,-329.5 534.177,-323.5"/>
<polyline fill="none" stroke="#88d856" stroke-width="2" stroke-dasharray="5,2" points="534.177,-323.5 534.177,-300.5 "/>
<path fill="none" stroke="#88d856" stroke-width="2" stroke-dasharray="5,2" d="M534.177,-300.5C534.177,-294.5 540.177,-288.5 546.177,-288.5"/>
<polyline fill="none" stroke="#88d856" stroke-width="2" stroke-dasharray="5,2" points="546.177,-288.5 634.177,-288.5 "/>
<path fill="none" stroke="#88d856" stroke-width="2" stroke-dasharray="5,2" d="M634.177,-288.5C640.177,-288.5 646.177,-294.5 646.177,-300.5"/>
<polyline fill="none" stroke="#88d856" stroke-width="2" stroke-dasharray="5,2" points="646.177,-300.5 646.177,-323.5 "/>
<path fill="none" stroke="#88d856" stroke-width="2" stroke-dasharray="5,2" d="M646.177,-323.5C646.177,-329.5 640.177,-335.5 634.177,-335.5"/>
<text text-anchor="middle" x="590.177" y="-322.5" font-family="sans" font-size="10.00">raw_make_links_pe</text>
<text text-anchor="middle" x="590.177" y="-309.5" font-family="sans" font-size="10.00">run: example_run</text>
<text text-anchor="middle" x="590.177" y="-296.5" font-family="sans" font-size="10.00">sample: sample1</text>
</g>
<!-- 4&#45;&gt;1 -->
<g id="edge4" class="edge"><title>4&#45;&gt;1</title>
<path fill="none" stroke="grey" stroke-width="2" d="M635.286,-288.386C654.424,-278.367 676.644,-266.735 695.611,-256.806"/>
<polygon fill="grey" stroke="grey" points="697.397,-259.822 704.633,-252.083 694.151,-253.62 697.397,-259.822"/>
</g>
<!-- 5 -->
<g id="node6" class="node"><title>5</title>
<polyline fill="none" stroke="#d88d56" stroke-width="2" stroke-dasharray="5,2" points="504.177,-180 416.177,-180 "/>
<path fill="none" stroke="#d88d56" stroke-width="2" stroke-dasharray="5,2" d="M416.177,-180C410.177,-180 404.177,-174 404.177,-168"/>
<polyline fill="none" stroke="#d88d56" stroke-width="2" stroke-dasharray="5,2" points="404.177,-168 404.177,-156 "/>
<path fill="none" stroke="#d88d56" stroke-width="2" stroke-dasharray="5,2" d="M404.177,-156C404.177,-150 410.177,-144 416.177,-144"/>
<polyline fill="none" stroke="#d88d56" stroke-width="2" stroke-dasharray="5,2" points="416.177,-144 504.177,-144 "/>
<path fill="none" stroke="#d88d56" stroke-width="2" stroke-dasharray="5,2" d="M504.177,-144C510.177,-144 516.177,-150 516.177,-156"/>
<polyline fill="none" stroke="#d88d56" stroke-width="2" stroke-dasharray="5,2" points="516.177,-156 516.177,-168 "/>
<path fill="none" stroke="#d88d56" stroke-width="2" stroke-dasharray="5,2" d="M516.177,-168C516.177,-174 510.177,-180 504.177,-180"/>
<text text-anchor="middle" x="460.177" y="-166" font-family="sans" font-size="10.00">raw_fastqc_sample</text>
<text text-anchor="middle" x="460.177" y="-153" font-family="sans" font-size="10.00">end: R1</text>
</g>
<!-- 4&#45;&gt;5 -->
<g id="edge32" class="edge"><title>4&#45;&gt;5</title>
<path fill="none" stroke="grey" stroke-width="2" d="M569.578,-288.232C545.859,-260.864 507.03,-216.061 482.576,-187.845"/>
<polygon fill="grey" stroke="grey" points="484.977,-185.272 475.783,-180.007 479.688,-189.856 484.977,-185.272"/>
</g>
<!-- 8 -->
<g id="node9" class="node"><title>8</title>
<polyline fill="none" stroke="#d88d56" stroke-width="2" stroke-dasharray="5,2" points="634.177,-180 546.177,-180 "/>
<path fill="none" stroke="#d88d56" stroke-width="2" stroke-dasharray="5,2" d="M546.177,-180C540.177,-180 534.177,-174 534.177,-168"/>
<polyline fill="none" stroke="#d88d56" stroke-width="2" stroke-dasharray="5,2" points="534.177,-168 534.177,-156 "/>
<path fill="none" stroke="#d88d56" stroke-width="2" stroke-dasharray="5,2" d="M534.177,-156C534.177,-150 540.177,-144 546.177,-144"/>
<polyline fill="none" stroke="#d88d56" stroke-width="2" stroke-dasharray="5,2" points="546.177,-144 634.177,-144 "/>
<path fill="none" stroke="#d88d56" stroke-width="2" stroke-dasharray="5,2" d="M634.177,-144C640.177,-144 646.177,-150 646.177,-156"/>
<polyline fill="none" stroke="#d88d56" stroke-width="2" stroke-dasharray="5,2" points="646.177,-156 646.177,-168 "/>
<path fill="none" stroke="#d88d56" stroke-width="2" stroke-dasharray="5,2" d="M646.177,-168C646.177,-174 640.177,-180 634.177,-180"/>
<text text-anchor="middle" x="590.177" y="-166" font-family="sans" font-size="10.00">raw_fastqc_sample</text>
<text text-anchor="middle" x="590.177" y="-153" font-family="sans" font-size="10.00">end: R2</text>
</g>
<!-- 4&#45;&gt;8 -->
<g id="edge52" class="edge"><title>4&#45;&gt;8</title>
<path fill="none" stroke="grey" stroke-width="2" d="M590.177,-288.232C590.177,-261.569 590.177,-218.357 590.177,-190.058"/>
<polygon fill="grey" stroke="grey" points="593.677,-190.007 590.177,-180.007 586.677,-190.007 593.677,-190.007"/>
</g>
<!-- 5&#45;&gt;2 -->
<g id="edge12" class="edge"><title>5&#45;&gt;2</title>
<path fill="none" stroke="grey" stroke-width="2" d="M469.161,-143.827C477.235,-124.69 486.016,-94.3014 473.177,-72 461.034,-50.9079 437.144,-37.2946 416.618,-29.0126"/>
<polygon fill="grey" stroke="grey" points="417.772,-25.7072 407.18,-25.4703 415.312,-32.2609 417.772,-25.7072"/>
</g>
<!-- 5&#45;&gt;6 -->
<g id="edge44" class="edge"><title>5&#45;&gt;6</title>
<path fill="none" stroke="grey" stroke-width="2" d="M428.129,-143.831C411.735,-134.537 391.598,-123.121 374.094,-113.197"/>
<polygon fill="grey" stroke="grey" points="375.639,-110.05 365.214,-108.163 372.187,-116.139 375.639,-110.05"/>
</g>
<!-- 5&#45;&gt;10 -->
<g id="edge64" class="edge"><title>5&#45;&gt;10</title>
<path fill="none" stroke="grey" stroke-width="2" d="M451.85,-143.831C448.204,-135.877 443.846,-126.369 439.814,-117.572"/>
<polygon fill="grey" stroke="grey" points="442.965,-116.046 435.616,-108.413 436.601,-118.962 442.965,-116.046"/>
</g>
<!-- 6&#45;&gt;2 -->
<g id="edge14" class="edge"><title>6&#45;&gt;2</title>
<path fill="none" stroke="grey" stroke-width="2" d="M345.037,-71.8314C350.34,-63.7079 356.701,-53.9637 362.544,-45.0118"/>
<polygon fill="grey" stroke="grey" points="365.622,-46.7003 368.157,-36.4133 359.76,-42.8739 365.622,-46.7003"/>
</g>
<!-- 7 -->
<g id="node8" class="node"><title>7</title>
<polyline fill="none" stroke="#568ad8" stroke-width="2" stroke-dasharray="5,2" points="145.177,-252 65.1769,-252 "/>
<path fill="none" stroke="#568ad8" stroke-width="2" stroke-dasharray="5,2" d="M65.1769,-252C59.1769,-252 53.1769,-246 53.1769,-240"/>
<polyline fill="none" stroke="#568ad8" stroke-width="2" stroke-dasharray="5,2" points="53.1769,-240 53.1769,-228 "/>
<path fill="none" stroke="#568ad8" stroke-width="2" stroke-dasharray="5,2" d="M53.1769,-228C53.1769,-222 59.1769,-216 65.1769,-216"/>
<polyline fill="none" stroke="#568ad8" stroke-width="2" stroke-dasharray="5,2" points="65.1769,-216 145.177,-216 "/>
<path fill="none" stroke="#568ad8" stroke-width="2" stroke-dasharray="5,2" d="M145.177,-216C151.177,-216 157.177,-222 157.177,-228"/>
<polyline fill="none" stroke="#568ad8" stroke-width="2" stroke-dasharray="5,2" points="157.177,-228 157.177,-240 "/>
<path fill="none" stroke="#568ad8" stroke-width="2" stroke-dasharray="5,2" d="M157.177,-240C157.177,-246 151.177,-252 145.177,-252"/>
<text text-anchor="middle" x="105.177" y="-231.5" font-family="sans" font-size="10.00">qc_kneaddata_pe</text>
</g>
<!-- 7&#45;&gt;2 -->
<g id="edge16" class="edge"><title>7&#45;&gt;2</title>
<path fill="none" stroke="grey" stroke-width="2" d="M53.0091,-216.177C36.683,-207.855 20.5105,-196.126 11.1769,-180 -14.24,-136.086 7.13882,-101.838 48.1769,-72 94.6964,-38.1767 266.198,-24.4328 342.798,-19.8936"/>
<polygon fill="grey" stroke="grey" points="343.169,-23.3782 352.953,-19.3131 342.77,-16.3896 343.169,-23.3782"/>
</g>
<!-- 13 -->
<g id="node14" class="node"><title>13</title>
<polyline fill="none" stroke="#59d856" stroke-width="2" stroke-dasharray="5,2" points="84.1769,-180 42.1769,-180 "/>
<path fill="none" stroke="#59d856" stroke-width="2" stroke-dasharray="5,2" d="M42.1769,-180C36.1769,-180 30.1769,-174 30.1769,-168"/>
<polyline fill="none" stroke="#59d856" stroke-width="2" stroke-dasharray="5,2" points="30.1769,-168 30.1769,-156 "/>
<path fill="none" stroke="#59d856" stroke-width="2" stroke-dasharray="5,2" d="M30.1769,-156C30.1769,-150 36.1769,-144 42.1769,-144"/>
<polyline fill="none" stroke="#59d856" stroke-width="2" stroke-dasharray="5,2" points="42.1769,-144 84.1769,-144 "/>
<path fill="none" stroke="#59d856" stroke-width="2" stroke-dasharray="5,2" d="M84.1769,-144C90.1769,-144 96.1769,-150 96.1769,-156"/>
<polyline fill="none" stroke="#59d856" stroke-width="2" stroke-dasharray="5,2" points="96.1769,-156 96.1769,-168 "/>
<path fill="none" stroke="#59d856" stroke-width="2" stroke-dasharray="5,2" d="M96.1769,-168C96.1769,-174 90.1769,-180 84.1769,-180"/>
<text text-anchor="middle" x="63.1769" y="-166" font-family="sans" font-size="10.00">qc_fastqc</text>
<text text-anchor="middle" x="63.1769" y="-153" font-family="sans" font-size="10.00">end: R1</text>
</g>
<!-- 7&#45;&gt;13 -->
<g id="edge74" class="edge"><title>7&#45;&gt;13</title>
<path fill="none" stroke="grey" stroke-width="2" d="M94.5785,-215.831C89.8891,-207.792 84.274,-198.167 79.0971,-189.292"/>
<polygon fill="grey" stroke="grey" points="81.9799,-187.288 73.9179,-180.413 75.9335,-190.815 81.9799,-187.288"/>
</g>
<!-- 14 -->
<g id="node15" class="node"><title>14</title>
<polyline fill="none" stroke="#59d856" stroke-width="2" stroke-dasharray="5,2" points="168.177,-180 126.177,-180 "/>
<path fill="none" stroke="#59d856" stroke-width="2" stroke-dasharray="5,2" d="M126.177,-180C120.177,-180 114.177,-174 114.177,-168"/>
<polyline fill="none" stroke="#59d856" stroke-width="2" stroke-dasharray="5,2" points="114.177,-168 114.177,-156 "/>
<path fill="none" stroke="#59d856" stroke-width="2" stroke-dasharray="5,2" d="M114.177,-156C114.177,-150 120.177,-144 126.177,-144"/>
<polyline fill="none" stroke="#59d856" stroke-width="2" stroke-dasharray="5,2" points="126.177,-144 168.177,-144 "/>
<path fill="none" stroke="#59d856" stroke-width="2" stroke-dasharray="5,2" d="M168.177,-144C174.177,-144 180.177,-150 180.177,-156"/>
<polyline fill="none" stroke="#59d856" stroke-width="2" stroke-dasharray="5,2" points="180.177,-156 180.177,-168 "/>
<path fill="none" stroke="#59d856" stroke-width="2" stroke-dasharray="5,2" d="M180.177,-168C180.177,-174 174.177,-180 168.177,-180"/>
<text text-anchor="middle" x="147.177" y="-166" font-family="sans" font-size="10.00">qc_fastqc</text>
<text text-anchor="middle" x="147.177" y="-153" font-family="sans" font-size="10.00">end: R2</text>
</g>
<!-- 7&#45;&gt;14 -->
<g id="edge76" class="edge"><title>7&#45;&gt;14</title>
<path fill="none" stroke="grey" stroke-width="2" d="M115.775,-215.831C120.465,-207.792 126.08,-198.167 131.257,-189.292"/>
<polygon fill="grey" stroke="grey" points="134.42,-190.815 136.436,-180.413 128.374,-187.288 134.42,-190.815"/>
</g>
<!-- 8&#45;&gt;2 -->
<g id="edge18" class="edge"><title>8&#45;&gt;2</title>
<path fill="none" stroke="grey" stroke-width="2" d="M573.009,-143.797C554.024,-124.358 521.908,-93.4573 490.177,-72 467.15,-56.4287 438.972,-42.685 416.901,-32.9598"/>
<polygon fill="grey" stroke="grey" points="418.108,-29.6686 407.54,-28.9134 415.331,-36.094 418.108,-29.6686"/>
</g>
<!-- 8&#45;&gt;6 -->
<g id="edge36" class="edge"><title>8&#45;&gt;6</title>
<path fill="none" stroke="grey" stroke-width="2" d="M533.83,-146.303C530.905,-145.517 528.008,-144.746 525.177,-144 464.374,-127.983 445.88,-127.612 382.094,-108.121"/>
<polygon fill="grey" stroke="grey" points="382.931,-104.716 372.344,-105.102 380.861,-111.403 382.931,-104.716"/>
</g>
<!-- 8&#45;&gt;10 -->
<g id="edge56" class="edge"><title>8&#45;&gt;10</title>
<path fill="none" stroke="grey" stroke-width="2" d="M549.045,-143.831C526.066,-133.681 497.358,-121 473.578,-110.496"/>
<polygon fill="grey" stroke="grey" points="474.955,-107.278 464.394,-106.439 472.127,-113.681 474.955,-107.278"/>
</g>
<!-- 9 -->
<g id="node10" class="node"><title>9</title>
<polyline fill="none" stroke="#88d856" stroke-width="2" stroke-dasharray="5,2" points="298.177,-335.5 210.177,-335.5 "/>
<path fill="none" stroke="#88d856" stroke-width="2" stroke-dasharray="5,2" d="M210.177,-335.5C204.177,-335.5 198.177,-329.5 198.177,-323.5"/>
<polyline fill="none" stroke="#88d856" stroke-width="2" stroke-dasharray="5,2" points="198.177,-323.5 198.177,-300.5 "/>
<path fill="none" stroke="#88d856" stroke-width="2" stroke-dasharray="5,2" d="M198.177,-300.5C198.177,-294.5 204.177,-288.5 210.177,-288.5"/>
<polyline fill="none" stroke="#88d856" stroke-width="2" stroke-dasharray="5,2" points="210.177,-288.5 298.177,-288.5 "/>
<path fill="none" stroke="#88d856" stroke-width="2" stroke-dasharray="5,2" d="M298.177,-288.5C304.177,-288.5 310.177,-294.5 310.177,-300.5"/>
<polyline fill="none" stroke="#88d856" stroke-width="2" stroke-dasharray="5,2" points="310.177,-300.5 310.177,-323.5 "/>
<path fill="none" stroke="#88d856" stroke-width="2" stroke-dasharray="5,2" d="M310.177,-323.5C310.177,-329.5 304.177,-335.5 298.177,-335.5"/>
<text text-anchor="middle" x="254.177" y="-322.5" font-family="sans" font-size="10.00">raw_make_links_pe</text>
<text text-anchor="middle" x="254.177" y="-309.5" font-family="sans" font-size="10.00">run: example_run</text>
<text text-anchor="middle" x="254.177" y="-296.5" font-family="sans" font-size="10.00">sample: sample2</text>
</g>
<!-- 9&#45;&gt;0 -->
<g id="edge2" class="edge"><title>9&#45;&gt;0</title>
<path fill="none" stroke="grey" stroke-width="2" d="M279.836,-288.174C289.756,-278.963 301.116,-268.414 311.16,-259.087"/>
<polygon fill="grey" stroke="grey" points="313.593,-261.605 318.539,-252.235 308.829,-256.475 313.593,-261.605"/>
</g>
<!-- 9&#45;&gt;3 -->
<g id="edge30" class="edge"><title>9&#45;&gt;3</title>
<path fill="none" stroke="grey" stroke-width="2" d="M254.177,-288.232C254.177,-261.569 254.177,-218.357 254.177,-190.058"/>
<polygon fill="grey" stroke="grey" points="257.677,-190.007 254.177,-180.007 250.677,-190.007 257.677,-190.007"/>
</g>
<!-- 9&#45;&gt;7 -->
<g id="edge50" class="edge"><title>9&#45;&gt;7</title>
<path fill="none" stroke="grey" stroke-width="2" d="M209.068,-288.386C189.929,-278.367 167.709,-266.735 148.742,-256.806"/>
<polygon fill="grey" stroke="grey" points="150.203,-253.62 139.72,-252.083 146.957,-259.822 150.203,-253.62"/>
</g>
<!-- 10&#45;&gt;2 -->
<g id="edge20" class="edge"><title>10&#45;&gt;2</title>
<path fill="none" stroke="grey" stroke-width="2" d="M415.317,-71.8314C410.014,-63.7079 403.653,-53.9637 397.81,-45.0118"/>
<polygon fill="grey" stroke="grey" points="400.594,-42.8739 392.197,-36.4133 394.732,-46.7003 400.594,-42.8739"/>
</g>
<!-- 11&#45;&gt;2 -->
<g id="edge22" class="edge"><title>11&#45;&gt;2</title>
<path fill="none" stroke="grey" stroke-width="2" d="M748.047,-145.892C707.645,-126.649 636.964,-94.2668 574.177,-72 520.488,-52.9597 456.552,-36.2811 417.163,-26.6713"/>
<polygon fill="grey" stroke="grey" points="417.758,-23.2145 407.216,-24.2677 416.114,-30.0187 417.758,-23.2145"/>
</g>
<!-- 11&#45;&gt;6 -->
<g id="edge38" class="edge"><title>11&#45;&gt;6</title>
<path fill="none" stroke="grey" stroke-width="2" d="M748.028,-146.711C745.074,-145.68 742.096,-144.753 739.177,-144 587.512,-104.86 538.889,-142.758 382.2,-107.867"/>
<polygon fill="grey" stroke="grey" points="382.743,-104.401 372.214,-105.579 381.179,-111.224 382.743,-104.401"/>
</g>
<!-- 11&#45;&gt;10 -->
<g id="edge58" class="edge"><title>11&#45;&gt;10</title>
<path fill="none" stroke="grey" stroke-width="2" d="M747.966,-146.936C745.025,-145.856 742.067,-144.857 739.177,-144 647.502,-116.829 536.37,-101.652 474.542,-94.7131"/>
<polygon fill="grey" stroke="grey" points="474.642,-91.2032 464.32,-93.5909 473.878,-98.1614 474.642,-91.2032"/>
</g>
<!-- 12&#45;&gt;2 -->
<g id="edge24" class="edge"><title>12&#45;&gt;2</title>
<path fill="none" stroke="grey" stroke-width="2" d="M665.437,-143.852C631.363,-124.736 575.353,-94.3644 525.177,-72 489.025,-55.8863 446.454,-40.4328 416.829,-30.2176"/>
<polygon fill="grey" stroke="grey" points="417.901,-26.8853 407.307,-26.9607 415.636,-33.5086 417.901,-26.8853"/>
</g>
<!-- 12&#45;&gt;6 -->
<g id="edge42" class="edge"><title>12&#45;&gt;6</title>
<path fill="none" stroke="grey" stroke-width="2" d="M664.003,-146.807C661.054,-145.755 658.084,-144.798 655.177,-144 539.853,-112.36 502.318,-136.413 382.183,-107.911"/>
<polygon fill="grey" stroke="grey" points="382.784,-104.455 372.238,-105.478 381.12,-111.254 382.784,-104.455"/>
</g>
<!-- 12&#45;&gt;10 -->
<g id="edge62" class="edge"><title>12&#45;&gt;10</title>
<path fill="none" stroke="grey" stroke-width="2" d="M663.906,-147.127C660.978,-146.005 658.04,-144.945 655.177,-144 593.944,-123.795 521.127,-107.908 474.548,-98.7384"/>
<polygon fill="grey" stroke="grey" points="474.93,-95.2472 464.446,-96.7741 473.594,-102.119 474.93,-95.2472"/>
</g>
<!-- 13&#45;&gt;2 -->
<g id="edge26" class="edge"><title>13&#45;&gt;2</title>
<path fill="none" stroke="grey" stroke-width="2" d="M88.0162,-143.871C116.06,-124.063 163.602,-92.4347 208.177,-72 252.845,-51.5221 307.418,-35.8513 342.945,-26.7935"/>
<polygon fill="grey" stroke="grey" points="344.031,-30.1298 352.882,-24.3062 342.331,-23.3393 344.031,-30.1298"/>
</g>
<!-- 13&#45;&gt;6 -->
<g id="edge46" class="edge"><title>13&#45;&gt;6</title>
<path fill="none" stroke="grey" stroke-width="2" d="M96.4475,-147.127C99.3758,-146.005 102.314,-144.945 105.177,-144 165.638,-124.049 237.394,-108.309 284.034,-99.088"/>
<polygon fill="grey" stroke="grey" points="284.737,-102.517 293.881,-97.1644 283.395,-95.6467 284.737,-102.517"/>
</g>
<!-- 13&#45;&gt;10 -->
<g id="edge66" class="edge"><title>13&#45;&gt;10</title>
<path fill="none" stroke="grey" stroke-width="2" d="M96.3501,-146.804C99.2996,-145.753 102.269,-144.796 105.177,-144 221.344,-112.188 259.357,-137.361 380.032,-107.927"/>
<polygon fill="grey" stroke="grey" points="381.178,-111.248 390.021,-105.414 379.469,-104.46 381.178,-111.248"/>
</g>
<!-- 14&#45;&gt;2 -->
<g id="edge28" class="edge"><title>14&#45;&gt;2</title>
<path fill="none" stroke="grey" stroke-width="2" d="M167.296,-143.857C189.451,-124.47 226.657,-93.6122 262.177,-72 288.227,-56.1494 319.717,-41.9645 343.612,-32.1149"/>
<polygon fill="grey" stroke="grey" points="345.071,-35.3 353.022,-28.2976 342.44,-28.8134 345.071,-35.3"/>
</g>
<!-- 14&#45;&gt;6 -->
<g id="edge48" class="edge"><title>14&#45;&gt;6</title>
<path fill="none" stroke="grey" stroke-width="2" d="M180.59,-147.516C183.487,-146.31 186.379,-145.123 189.177,-144 220.65,-131.362 256.343,-117.971 284.319,-107.686"/>
<polygon fill="grey" stroke="grey" points="285.689,-110.911 293.873,-104.183 283.28,-104.339 285.689,-110.911"/>
</g>
<!-- 14&#45;&gt;10 -->
<g id="edge68" class="edge"><title>14&#45;&gt;10</title>
<path fill="none" stroke="grey" stroke-width="2" d="M180.401,-146.98C183.339,-145.89 186.293,-144.877 189.177,-144 269.242,-119.66 295.802,-131.022 380.228,-107.974"/>
<polygon fill="grey" stroke="grey" points="381.293,-111.31 389.972,-105.233 379.398,-104.572 381.293,-111.31"/>
</g>
</g>
</svg>
